<svg width="32" height="32" viewBox="0 0 32 32" fill="none" xmlns="http://www.w3.org/2000/svg">
<path d="M27.8374 4.1333C26.8596 3.15553 25.6832 2.66708 24.3081 2.66797H7.65873C6.28273 2.66797 5.10629 3.15641 4.1294 4.1333C3.15162 5.11108 2.66317 6.28753 2.66406 7.66264V24.312C2.66406 25.688 3.15251 26.8644 4.1294 27.8413C5.10717 28.8191 6.28362 29.3075 7.65873 29.3066H11.5441C11.7974 29.3066 11.9881 29.2977 12.1161 29.28C12.2651 29.2505 12.3997 29.171 12.4974 29.0546C12.6245 28.9213 12.6881 28.728 12.6881 28.4746L12.6787 27.2946C12.6734 26.5426 12.6707 25.9471 12.6707 25.508L12.2707 25.5773C12.0174 25.6235 11.697 25.644 11.3094 25.6386C10.905 25.6309 10.5019 25.5903 10.1041 25.5173C9.6802 25.4404 9.28126 25.262 8.9414 24.9973C8.58466 24.7275 8.31862 24.3555 8.17873 23.9306L8.0054 23.5306C7.85874 23.2154 7.67524 22.9187 7.45873 22.6466C7.20984 22.3231 6.95829 22.1035 6.70406 21.988L6.58406 21.9013C6.50074 21.8409 6.42467 21.7712 6.3574 21.6933C6.29313 21.621 6.24051 21.5391 6.2014 21.4506C6.16673 21.3689 6.19562 21.3022 6.28806 21.2506C6.38051 21.1973 6.54851 21.1711 6.79206 21.172L7.13873 21.2253C7.36984 21.2706 7.65562 21.4089 7.99606 21.64C8.34014 21.8746 8.62757 22.1829 8.8374 22.5426C9.10406 23.0155 9.42495 23.3769 9.80006 23.6266C10.1761 23.8755 10.5547 24 10.9361 24C11.3174 24 11.6472 23.9711 11.9254 23.9133C12.1948 23.8575 12.4567 23.7697 12.7054 23.652C12.8094 22.8777 13.0925 22.2822 13.5547 21.8653C12.9553 21.8061 12.3612 21.7018 11.7774 21.5533C11.2077 21.397 10.6599 21.1699 10.1467 20.8773C9.60972 20.5849 9.1354 20.1899 8.75073 19.7146C8.38095 19.2524 8.0774 18.6457 7.84006 17.8946C7.60362 17.1426 7.4854 16.2751 7.4854 15.292C7.4854 13.8937 7.94184 12.7026 8.85473 11.7186C8.42806 10.6671 8.46851 9.48841 8.97606 8.18264C9.31206 8.07775 9.8094 8.15553 10.4681 8.41597C11.1267 8.67641 11.6094 8.89864 11.9161 9.08264C12.2227 9.2693 12.4685 9.42575 12.6534 9.55197C13.7373 9.24976 14.8575 9.09812 15.9827 9.1013C17.1276 9.1013 18.2378 9.25153 19.3134 9.55197L19.9721 9.13597C20.4787 8.83179 21.0131 8.57643 21.5681 8.3733C22.1805 8.14219 22.649 8.07864 22.9734 8.18264C23.4934 9.4893 23.5392 10.6684 23.1107 11.72C24.0245 12.7022 24.4814 13.8933 24.4814 15.2933C24.4814 16.2764 24.3627 17.1462 24.1254 17.9026C23.889 18.66 23.5827 19.2671 23.2067 19.724C22.8142 20.192 22.3381 20.5831 21.8027 20.8773C21.2427 21.1893 20.6992 21.4146 20.1721 21.5533C19.5883 21.7022 18.9942 21.807 18.3947 21.8666C18.9947 22.3866 19.2952 23.2071 19.2961 24.328V28.4746C19.2961 28.6702 19.325 28.8289 19.3827 28.9506C19.4097 29.0091 19.4481 29.0615 19.4958 29.1048C19.5434 29.1481 19.5993 29.1814 19.6601 29.2026C19.7872 29.2489 19.9001 29.2773 19.9987 29.288C20.0974 29.3004 20.2387 29.3062 20.4227 29.3053H24.3081C25.6841 29.3053 26.8605 28.8169 27.8374 27.84C28.8143 26.8631 29.3027 25.6866 29.3027 24.3106V7.66264C29.3027 6.28664 28.8152 5.11019 27.8374 4.1333Z" fill="black"/>
</svg>
